ISO-10303-21;
HEADER;
FILE_DESCRIPTION(('FreeCAD Model'),'2;1');
FILE_NAME('Open CASCADE Shape Model','2026-10-07T20:54:59',('FreeCAD'),(
    'FreeCAD'),'Open CASCADE STEP processor 7.8','FreeCAD','Unknown');
FILE_SCHEMA(('AUTOMOTIVE_DESIGN { 1 0 10303 214 1 1 1 1 }'));
ENDSEC;
DATA;
#1 = APPLICATION_PROTOCOL_DEFINITION('international standard',
  'automotive_design',2000,#2);
#2 = APPLICATION_CONTEXT(
  'core data for automotive mechanical design processes');
#3 = SHAPE_DEFINITION_REPRESENTATION(#4,#10);
#4 = PRODUCT_DEFINITION_SHAPE('','',#5);
#5 = PRODUCT_DEFINITION('design','',#6,#9);
#6 = PRODUCT_DEFINITION_FORMATION('','',#7);
#7 = PRODUCT('Open CASCADE STEP translator 7.8 5',
  'Open CASCADE STEP translator 7.8 5','',(#8));
#8 = PRODUCT_CONTEXT('',#2,'mechanical');
#9 = PRODUCT_DEFINITION_CONTEXT('part definition',#2,'design');
#10 = ADVANCED_BREP_SHAPE_REPRESENTATION('',(#11,#15),#1388);
#11 = AXIS2_PLACEMENT_3D('',#12,#13,#14);
#12 = CARTESIAN_POINT('',(0.,0.,0.));
#13 = DIRECTION('',(0.,0.,1.));
#14 = DIRECTION('',(1.,0.,-0.));
#15 = MANIFOLD_SOLID_BREP('',#16);
#16 = CLOSED_SHELL('',(#17,#97,#130,#163,#194,#294,#310,#377,#465,#560,
    #591,#617,#634,#709,#734,#758,#800,#824,#842,#885,#903,#919,#936,
    #959,#971,#995,#1035,#1052,#1076,#1116,#1133,#1150,#1167,#1179,#1196
    ,#1213,#1225,#1243,#1261,#1273,#1299,#1324,#1342,#1359,#1376));
#17 = ADVANCED_FACE('',(#18),#92,.T.);
#18 = FACE_BOUND('',#19,.T.);
#19 = EDGE_LOOP('',(#20,#30,#38,#46,#54,#62,#70,#78,#86));
#20 = ORIENTED_EDGE('',*,*,#21,.T.);
#21 = EDGE_CURVE('',#22,#24,#26,.T.);
#22 = VERTEX_POINT('',#23);
#23 = CARTESIAN_POINT('',(0.,1.5,56.));
#24 = VERTEX_POINT('',#25);
#25 = CARTESIAN_POINT('',(0.,55.2,56.));
#26 = LINE('',#27,#28);
#27 = CARTESIAN_POINT('',(-1.7763568394E-15,0.,56.));
#28 = VECTOR('',#29,1.);
#29 = DIRECTION('',(0.,1.,0.));
#30 = ORIENTED_EDGE('',*,*,#31,.T.);
#31 = EDGE_CURVE('',#24,#32,#34,.T.);
#32 = VERTEX_POINT('',#33);
#33 = CARTESIAN_POINT('',(-3.330669073875E-16,55.2,8.));
#34 = LINE('',#35,#36);
#35 = CARTESIAN_POINT('',(-3.330669073875E-16,55.2,56.));
#36 = VECTOR('',#37,1.);
#37 = DIRECTION('',(0.,0.,-1.));
#38 = ORIENTED_EDGE('',*,*,#39,.F.);
#39 = EDGE_CURVE('',#40,#32,#42,.T.);
#40 = VERTEX_POINT('',#41);
#41 = CARTESIAN_POINT('',(0.,56.,8.));
#42 = LINE('',#43,#44);
#43 = CARTESIAN_POINT('',(-1.833550146729E-16,37.99496006086,8.));
#44 = VECTOR('',#45,1.);
#45 = DIRECTION('',(-0.,-1.,-0.));
#46 = ORIENTED_EDGE('',*,*,#47,.T.);
#47 = EDGE_CURVE('',#40,#48,#50,.T.);
#48 = VERTEX_POINT('',#49);
#49 = CARTESIAN_POINT('',(0.,76.,8.));
#50 = LINE('',#51,#52);
#51 = CARTESIAN_POINT('',(0.,0.,8.));
#52 = VECTOR('',#53,1.);
#53 = DIRECTION('',(0.,1.,0.));
#54 = ORIENTED_EDGE('',*,*,#55,.F.);
#55 = EDGE_CURVE('',#56,#48,#58,.T.);
#56 = VERTEX_POINT('',#57);
#57 = CARTESIAN_POINT('',(0.,76.,0.));
#58 = LINE('',#59,#60);
#59 = CARTESIAN_POINT('',(0.,76.,0.));
#60 = VECTOR('',#61,1.);
#61 = DIRECTION('',(0.,0.,1.));
#62 = ORIENTED_EDGE('',*,*,#63,.F.);
#63 = EDGE_CURVE('',#64,#56,#66,.T.);
#64 = VERTEX_POINT('',#65);
#65 = CARTESIAN_POINT('',(0.,0.,0.));
#66 = LINE('',#67,#68);
#67 = CARTESIAN_POINT('',(0.,0.,0.));
#68 = VECTOR('',#69,1.);
#69 = DIRECTION('',(0.,1.,0.));
#70 = ORIENTED_EDGE('',*,*,#71,.T.);
#71 = EDGE_CURVE('',#64,#72,#74,.T.);
#72 = VERTEX_POINT('',#73);
#73 = CARTESIAN_POINT('',(0.,0.,8.));
#74 = LINE('',#75,#76);
#75 = CARTESIAN_POINT('',(0.,0.,0.));
#76 = VECTOR('',#77,1.);
#77 = DIRECTION('',(0.,0.,1.));
#78 = ORIENTED_EDGE('',*,*,#79,.T.);
#79 = EDGE_CURVE('',#72,#80,#82,.T.);
#80 = VERTEX_POINT('',#81);
#81 = CARTESIAN_POINT('',(0.,1.5,8.));
#82 = LINE('',#83,#84);
#83 = CARTESIAN_POINT('',(0.,0.,8.));
#84 = VECTOR('',#85,1.);
#85 = DIRECTION('',(0.,1.,0.));
#86 = ORIENTED_EDGE('',*,*,#87,.F.);
#87 = EDGE_CURVE('',#22,#80,#88,.T.);
#88 = LINE('',#89,#90);
#89 = CARTESIAN_POINT('',(0.,1.5,56.));
#90 = VECTOR('',#91,1.);
#91 = DIRECTION('',(0.,0.,-1.));
#92 = PLANE('',#93);
#93 = AXIS2_PLACEMENT_3D('',#94,#95,#96);
#94 = CARTESIAN_POINT('',(-3.667100293459E-16,34.636363636364,
    24.090909090909));
#95 = DIRECTION('',(-1.,-0.,-0.));
#96 = DIRECTION('',(0.,0.,-1.));
#97 = ADVANCED_FACE('',(#98),#125,.T.);
#98 = FACE_BOUND('',#99,.T.);
#99 = EDGE_LOOP('',(#100,#110,#117,#118));
#100 = ORIENTED_EDGE('',*,*,#101,.T.);
#101 = EDGE_CURVE('',#102,#104,#106,.T.);
#102 = VERTEX_POINT('',#103);
#103 = CARTESIAN_POINT('',(12.,1.5,68.));
#104 = VERTEX_POINT('',#105);
#105 = CARTESIAN_POINT('',(12.,55.2,68.));
#106 = LINE('',#107,#108);
#107 = CARTESIAN_POINT('',(12.,0.,68.));
#108 = VECTOR('',#109,1.);
#109 = DIRECTION('',(0.,1.,0.));
#110 = ORIENTED_EDGE('',*,*,#111,.T.);
#111 = EDGE_CURVE('',#104,#24,#112,.T.);
#112 = CIRCLE('',#113,12.);
#113 = AXIS2_PLACEMENT_3D('',#114,#115,#116);
#114 = CARTESIAN_POINT('',(12.,55.2,56.));
#115 = DIRECTION('',(-0.,-1.,0.));
#116 = DIRECTION('',(-1.184237892933E-15,0.,1.));
#117 = ORIENTED_EDGE('',*,*,#21,.F.);
#118 = ORIENTED_EDGE('',*,*,#119,.F.);
#119 = EDGE_CURVE('',#102,#22,#120,.T.);
#120 = CIRCLE('',#121,12.);
#121 = AXIS2_PLACEMENT_3D('',#122,#123,#124);
#122 = CARTESIAN_POINT('',(12.,1.5,56.));
#123 = DIRECTION('',(-0.,-1.,0.));
#124 = DIRECTION('',(-1.184237892933E-15,0.,1.));
#125 = CYLINDRICAL_SURFACE('',#126,12.);
#126 = AXIS2_PLACEMENT_3D('',#127,#128,#129);
#127 = CARTESIAN_POINT('',(12.,0.,56.));
#128 = DIRECTION('',(0.,-1.,0.));
#129 = DIRECTION('',(-8.881784197001E-16,0.,1.));
#130 = ADVANCED_FACE('',(#131),#158,.T.);
#131 = FACE_BOUND('',#132,.F.);
#132 = EDGE_LOOP('',(#133,#142,#143,#152));
#133 = ORIENTED_EDGE('',*,*,#134,.T.);
#134 = EDGE_CURVE('',#135,#24,#137,.T.);
#135 = VERTEX_POINT('',#136);
#136 = CARTESIAN_POINT('',(0.8,56.,56.));
#137 = CIRCLE('',#138,0.8);
#138 = AXIS2_PLACEMENT_3D('',#139,#140,#141);
#139 = CARTESIAN_POINT('',(0.8,55.2,56.));
#140 = DIRECTION('',(8.753958913492E-16,0.,1.));
#141 = DIRECTION('',(-1.,0.,8.753958913492E-16));
#142 = ORIENTED_EDGE('',*,*,#31,.T.);
#143 = ORIENTED_EDGE('',*,*,#144,.F.);
#144 = EDGE_CURVE('',#145,#32,#147,.T.);
#145 = VERTEX_POINT('',#146);
#146 = CARTESIAN_POINT('',(0.8,56.,8.));
#147 = CIRCLE('',#148,0.8);
#148 = AXIS2_PLACEMENT_3D('',#149,#150,#151);
#149 = CARTESIAN_POINT('',(0.8,55.2,8.));
#150 = DIRECTION('',(0.,-0.,1.));
#151 = DIRECTION('',(0.,1.,0.));
#152 = ORIENTED_EDGE('',*,*,#153,.F.);
#153 = EDGE_CURVE('',#135,#145,#154,.T.);
#154 = LINE('',#155,#156);
#155 = CARTESIAN_POINT('',(0.8,56.,56.));
#156 = VECTOR('',#157,1.);
#157 = DIRECTION('',(0.,0.,-1.));
#158 = CYLINDRICAL_SURFACE('',#159,0.8);
#159 = AXIS2_PLACEMENT_3D('',#160,#161,#162);
#160 = CARTESIAN_POINT('',(0.8,55.2,56.));
#161 = DIRECTION('',(0.,0.,-1.));
#162 = DIRECTION('',(0.,1.,0.));
#163 = ADVANCED_FACE('',(#164),#189,.T.);
#164 = FACE_BOUND('',#165,.T.);
#165 = EDGE_LOOP('',(#166,#174,#175,#183));
#166 = ORIENTED_EDGE('',*,*,#167,.F.);
#167 = EDGE_CURVE('',#22,#168,#170,.T.);
#168 = VERTEX_POINT('',#169);
#169 = CARTESIAN_POINT('',(1.5,0.,56.));
#170 = LINE('',#171,#172);
#171 = CARTESIAN_POINT('',(0.,1.5,56.));
#172 = VECTOR('',#173,1.);
#173 = DIRECTION('',(0.707106781187,-0.707106781187,-6.189983709958E-16)
  );
#174 = ORIENTED_EDGE('',*,*,#87,.T.);
#175 = ORIENTED_EDGE('',*,*,#176,.F.);
#176 = EDGE_CURVE('',#177,#80,#179,.T.);
#177 = VERTEX_POINT('',#178);
#178 = CARTESIAN_POINT('',(1.5,0.,8.));
#179 = LINE('',#180,#181);
#180 = CARTESIAN_POINT('',(0.75,0.75,8.));
#181 = VECTOR('',#182,1.);
#182 = DIRECTION('',(-0.707106781187,0.707106781187,0.));
#183 = ORIENTED_EDGE('',*,*,#184,.F.);
#184 = EDGE_CURVE('',#168,#177,#185,.T.);
#185 = LINE('',#186,#187);
#186 = CARTESIAN_POINT('',(1.5,0.,56.));
#187 = VECTOR('',#188,1.);
#188 = DIRECTION('',(0.,0.,-1.));
#189 = PLANE('',#190);
#190 = AXIS2_PLACEMENT_3D('',#191,#192,#193);
#191 = CARTESIAN_POINT('',(0.75,0.75,56.));
#192 = DIRECTION('',(-0.707106781187,-0.707106781187,0.));
#193 = DIRECTION('',(0.,0.,-1.));
#194 = ADVANCED_FACE('',(#195),#289,.T.);
#195 = FACE_BOUND('',#196,.T.);
#196 = EDGE_LOOP('',(#197,#205,#214,#222,#230,#238,#247,#255,#264,#272,
    #280,#286,#287,#288));
#197 = ORIENTED_EDGE('',*,*,#198,.F.);
#198 = EDGE_CURVE('',#199,#145,#201,.T.);
#199 = VERTEX_POINT('',#200);
#200 = CARTESIAN_POINT('',(3.2,56.,8.));
#201 = LINE('',#202,#203);
#202 = CARTESIAN_POINT('',(42.,56.,8.));
#203 = VECTOR('',#204,1.);
#204 = DIRECTION('',(-1.,0.,0.));
#205 = ORIENTED_EDGE('',*,*,#206,.T.);
#206 = EDGE_CURVE('',#199,#207,#209,.T.);
#207 = VERTEX_POINT('',#208);
#208 = CARTESIAN_POINT('',(4.,55.2,8.));
#209 = CIRCLE('',#210,0.8);
#210 = AXIS2_PLACEMENT_3D('',#211,#212,#213);
#211 = CARTESIAN_POINT('',(3.2,55.2,8.));
#212 = DIRECTION('',(0.,0.,-1.));
#213 = DIRECTION('',(0.,1.,0.));
#214 = ORIENTED_EDGE('',*,*,#215,.F.);
#215 = EDGE_CURVE('',#216,#207,#218,.T.);
#216 = VERTEX_POINT('',#217);
#217 = CARTESIAN_POINT('',(4.,5.,8.));
#218 = LINE('',#219,#220);
#219 = CARTESIAN_POINT('',(4.,5.,8.));
#220 = VECTOR('',#221,1.);
#221 = DIRECTION('',(0.,1.,0.));
#222 = ORIENTED_EDGE('',*,*,#223,.T.);
#223 = EDGE_CURVE('',#216,#224,#226,.T.);
#224 = VERTEX_POINT('',#225);
#225 = CARTESIAN_POINT('',(164.,5.,8.));
#226 = LINE('',#227,#228);
#227 = CARTESIAN_POINT('',(4.,5.,8.));
#228 = VECTOR('',#229,1.);
#229 = DIRECTION('',(1.,0.,0.));
#230 = ORIENTED_EDGE('',*,*,#231,.T.);
#231 = EDGE_CURVE('',#224,#232,#234,.T.);
#232 = VERTEX_POINT('',#233);
#233 = CARTESIAN_POINT('',(164.,55.2,8.));
#234 = LINE('',#235,#236);
#235 = CARTESIAN_POINT('',(164.,5.,8.));
#236 = VECTOR('',#237,1.);
#237 = DIRECTION('',(0.,1.,0.));
#238 = ORIENTED_EDGE('',*,*,#239,.F.);
#239 = EDGE_CURVE('',#240,#232,#242,.T.);
#240 = VERTEX_POINT('',#241);
#241 = CARTESIAN_POINT('',(164.8,56.,8.));
#242 = CIRCLE('',#243,0.8);
#243 = AXIS2_PLACEMENT_3D('',#244,#245,#246);
#244 = CARTESIAN_POINT('',(164.8,55.2,8.));
#245 = DIRECTION('',(-0.,0.,1.));
#246 = DIRECTION('',(0.,-1.,0.));
#247 = ORIENTED_EDGE('',*,*,#248,.F.);
#248 = EDGE_CURVE('',#249,#240,#251,.T.);
#249 = VERTEX_POINT('',#250);
#250 = CARTESIAN_POINT('',(167.2,56.,8.));
#251 = LINE('',#252,#253);
#252 = CARTESIAN_POINT('',(42.,56.,8.));
#253 = VECTOR('',#254,1.);
#254 = DIRECTION('',(-1.,0.,0.));
#255 = ORIENTED_EDGE('',*,*,#256,.T.);
#256 = EDGE_CURVE('',#249,#257,#259,.T.);
#257 = VERTEX_POINT('',#258);
#258 = CARTESIAN_POINT('',(168.,55.2,8.));
#259 = CIRCLE('',#260,0.8);
#260 = AXIS2_PLACEMENT_3D('',#261,#262,#263);
#261 = CARTESIAN_POINT('',(167.2,55.2,8.));
#262 = DIRECTION('',(-0.,-0.,-1.));
#263 = DIRECTION('',(0.,-1.,0.));
#264 = ORIENTED_EDGE('',*,*,#265,.F.);
#265 = EDGE_CURVE('',#266,#257,#268,.T.);
#266 = VERTEX_POINT('',#267);
#267 = CARTESIAN_POINT('',(168.,56.,8.));
#268 = LINE('',#269,#270);
#269 = CARTESIAN_POINT('',(168.,37.99496006086,8.));
#270 = VECTOR('',#271,1.);
#271 = DIRECTION('',(0.,-1.,0.));
#272 = ORIENTED_EDGE('',*,*,#273,.T.);
#273 = EDGE_CURVE('',#266,#274,#276,.T.);
#274 = VERTEX_POINT('',#275);
#275 = CARTESIAN_POINT('',(168.,76.,8.));
#276 = LINE('',#277,#278);
#277 = CARTESIAN_POINT('',(168.,0.,8.));
#278 = VECTOR('',#279,1.);
#279 = DIRECTION('',(0.,1.,0.));
#280 = ORIENTED_EDGE('',*,*,#281,.F.);
#281 = EDGE_CURVE('',#48,#274,#282,.T.);
#282 = LINE('',#283,#284);
#283 = CARTESIAN_POINT('',(0.,76.,8.));
#284 = VECTOR('',#285,1.);
#285 = DIRECTION('',(1.,0.,0.));
#286 = ORIENTED_EDGE('',*,*,#47,.F.);
#287 = ORIENTED_EDGE('',*,*,#39,.T.);
#288 = ORIENTED_EDGE('',*,*,#144,.F.);
#289 = PLANE('',#290);
#290 = AXIS2_PLACEMENT_3D('',#291,#292,#293);
#291 = CARTESIAN_POINT('',(84.,41.353556485356,8.));
#292 = DIRECTION('',(0.,0.,1.));
#293 = DIRECTION('',(1.,0.,0.));
#294 = ADVANCED_FACE('',(#295),#305,.T.);
#295 = FACE_BOUND('',#296,.T.);
#296 = EDGE_LOOP('',(#297,#298,#304));
#297 = ORIENTED_EDGE('',*,*,#79,.F.);
#298 = ORIENTED_EDGE('',*,*,#299,.T.);
#299 = EDGE_CURVE('',#72,#177,#300,.T.);
#300 = LINE('',#301,#302);
#301 = CARTESIAN_POINT('',(0.,0.,8.));
#302 = VECTOR('',#303,1.);
#303 = DIRECTION('',(1.,0.,0.));
#304 = ORIENTED_EDGE('',*,*,#176,.T.);
#305 = PLANE('',#306);
#306 = AXIS2_PLACEMENT_3D('',#307,#308,#309);
#307 = CARTESIAN_POINT('',(0.,0.,8.));
#308 = DIRECTION('',(0.,0.,1.));
#309 = DIRECTION('',(1.,0.,0.));
#310 = ADVANCED_FACE('',(#311),#372,.T.);
#311 = FACE_BOUND('',#312,.T.);
#312 = EDGE_LOOP('',(#313,#323,#331,#339,#348,#356,#363,#364,#365,#366)
  );
#313 = ORIENTED_EDGE('',*,*,#314,.T.);
#314 = EDGE_CURVE('',#315,#317,#319,.T.);
#315 = VERTEX_POINT('',#316);
#316 = CARTESIAN_POINT('',(168.,0.,0.));
#317 = VERTEX_POINT('',#318);
#318 = CARTESIAN_POINT('',(168.,0.,8.));
#319 = LINE('',#320,#321);
#320 = CARTESIAN_POINT('',(168.,0.,0.));
#321 = VECTOR('',#322,1.);
#322 = DIRECTION('',(0.,0.,1.));
#323 = ORIENTED_EDGE('',*,*,#324,.F.);
#324 = EDGE_CURVE('',#325,#317,#327,.T.);
#325 = VERTEX_POINT('',#326);
#326 = CARTESIAN_POINT('',(166.5,0.,8.));
#327 = LINE('',#328,#329);
#328 = CARTESIAN_POINT('',(0.,0.,8.));
#329 = VECTOR('',#330,1.);
#330 = DIRECTION('',(1.,0.,0.));
#331 = ORIENTED_EDGE('',*,*,#332,.T.);
#332 = EDGE_CURVE('',#325,#333,#335,.T.);
#333 = VERTEX_POINT('',#334);
#334 = CARTESIAN_POINT('',(166.5,3.885780586188E-15,56.));
#335 = LINE('',#336,#337);
#336 = CARTESIAN_POINT('',(166.5,0.,0.));
#337 = VECTOR('',#338,1.);
#338 = DIRECTION('',(0.,0.,1.));
#339 = ORIENTED_EDGE('',*,*,#340,.T.);
#340 = EDGE_CURVE('',#333,#341,#343,.T.);
#341 = VERTEX_POINT('',#342);
#342 = CARTESIAN_POINT('',(156.,0.,66.5));
#343 = CIRCLE('',#344,10.5);
#344 = AXIS2_PLACEMENT_3D('',#345,#346,#347);
#345 = CARTESIAN_POINT('',(156.,0.,56.));
#346 = DIRECTION('',(0.,-1.,0.));
#347 = DIRECTION('',(1.,0.,-1.184237892934E-15));
#348 = ORIENTED_EDGE('',*,*,#349,.T.);
#349 = EDGE_CURVE('',#341,#350,#352,.T.);
#350 = VERTEX_POINT('',#351);
#351 = CARTESIAN_POINT('',(12.,3.885780586188E-15,66.5));
#352 = LINE('',#353,#354);
#353 = CARTESIAN_POINT('',(156.,0.,66.5));
#354 = VECTOR('',#355,1.);
#355 = DIRECTION('',(-1.,0.,0.));
#356 = ORIENTED_EDGE('',*,*,#357,.T.);
#357 = EDGE_CURVE('',#350,#168,#358,.T.);
#358 = CIRCLE('',#359,10.5);
#359 = AXIS2_PLACEMENT_3D('',#360,#361,#362);
#360 = CARTESIAN_POINT('',(12.,0.,56.));
#361 = DIRECTION('',(-0.,-1.,0.));
#362 = DIRECTION('',(-1.184237892933E-15,0.,1.));
#363 = ORIENTED_EDGE('',*,*,#184,.T.);
#364 = ORIENTED_EDGE('',*,*,#299,.F.);
#365 = ORIENTED_EDGE('',*,*,#71,.F.);
#366 = ORIENTED_EDGE('',*,*,#367,.T.);
#367 = EDGE_CURVE('',#64,#315,#368,.T.);
#368 = LINE('',#369,#370);
#369 = CARTESIAN_POINT('',(0.,0.,0.));
#370 = VECTOR('',#371,1.);
#371 = DIRECTION('',(1.,0.,0.));
#372 = PLANE('',#373);
#373 = AXIS2_PLACEMENT_3D('',#374,#375,#376);
#374 = CARTESIAN_POINT('',(84.,0.,32.147201454476));
#375 = DIRECTION('',(-0.,-1.,-0.));
#376 = DIRECTION('',(0.,0.,-1.));
#377 = ADVANCED_FACE('',(#378),#460,.T.);
#378 = FACE_BOUND('',#379,.T.);
#379 = EDGE_LOOP('',(#380,#388,#389,#390,#398,#406,#414,#422,#430,#438,
    #446,#454));
#380 = ORIENTED_EDGE('',*,*,#381,.F.);
#381 = EDGE_CURVE('',#56,#382,#384,.T.);
#382 = VERTEX_POINT('',#383);
#383 = CARTESIAN_POINT('',(23.65,76.,0.));
#384 = LINE('',#385,#386);
#385 = CARTESIAN_POINT('',(0.,76.,0.));
#386 = VECTOR('',#387,1.);
#387 = DIRECTION('',(1.,0.,0.));
#388 = ORIENTED_EDGE('',*,*,#55,.T.);
#389 = ORIENTED_EDGE('',*,*,#281,.T.);
#390 = ORIENTED_EDGE('',*,*,#391,.F.);
#391 = EDGE_CURVE('',#392,#274,#394,.T.);
#392 = VERTEX_POINT('',#393);
#393 = CARTESIAN_POINT('',(168.,76.,0.));
#394 = LINE('',#395,#396);
#395 = CARTESIAN_POINT('',(168.,76.,0.));
#396 = VECTOR('',#397,1.);
#397 = DIRECTION('',(0.,0.,1.));
#398 = ORIENTED_EDGE('',*,*,#399,.F.);
#399 = EDGE_CURVE('',#400,#392,#402,.T.);
#400 = VERTEX_POINT('',#401);
#401 = CARTESIAN_POINT('',(144.35,76.,0.));
#402 = LINE('',#403,#404);
#403 = CARTESIAN_POINT('',(0.,76.,0.));
#404 = VECTOR('',#405,1.);
#405 = DIRECTION('',(1.,0.,0.));
#406 = ORIENTED_EDGE('',*,*,#407,.T.);
#407 = EDGE_CURVE('',#400,#408,#410,.T.);
#408 = VERTEX_POINT('',#409);
#409 = CARTESIAN_POINT('',(144.35,76.,5.1));
#410 = LINE('',#411,#412);
#411 = CARTESIAN_POINT('',(144.35,76.,-0.1));
#412 = VECTOR('',#413,1.);
#413 = DIRECTION('',(0.,0.,1.));
#414 = ORIENTED_EDGE('',*,*,#415,.F.);
#415 = EDGE_CURVE('',#416,#408,#418,.T.);
#416 = VERTEX_POINT('',#417);
#417 = CARTESIAN_POINT('',(135.65,76.,5.1));
#418 = LINE('',#419,#420);
#419 = CARTESIAN_POINT('',(70.,76.,5.1));
#420 = VECTOR('',#421,1.);
#421 = DIRECTION('',(1.,0.,0.));
#422 = ORIENTED_EDGE('',*,*,#423,.F.);
#423 = EDGE_CURVE('',#424,#416,#426,.T.);
#424 = VERTEX_POINT('',#425);
#425 = CARTESIAN_POINT('',(135.65,76.,0.));
#426 = LINE('',#427,#428);
#427 = CARTESIAN_POINT('',(135.65,76.,-0.1));
#428 = VECTOR('',#429,1.);
#429 = DIRECTION('',(0.,0.,1.));
#430 = ORIENTED_EDGE('',*,*,#431,.F.);
#431 = EDGE_CURVE('',#432,#424,#434,.T.);
#432 = VERTEX_POINT('',#433);
#433 = CARTESIAN_POINT('',(32.35,76.,0.));
#434 = LINE('',#435,#436);
#435 = CARTESIAN_POINT('',(0.,76.,0.));
#436 = VECTOR('',#437,1.);
#437 = DIRECTION('',(1.,0.,0.));
#438 = ORIENTED_EDGE('',*,*,#439,.T.);
#439 = EDGE_CURVE('',#432,#440,#442,.T.);
#440 = VERTEX_POINT('',#441);
#441 = CARTESIAN_POINT('',(32.35,76.,5.1));
#442 = LINE('',#443,#444);
#443 = CARTESIAN_POINT('',(32.35,76.,-0.1));
#444 = VECTOR('',#445,1.);
#445 = DIRECTION('',(0.,0.,1.));
#446 = ORIENTED_EDGE('',*,*,#447,.F.);
#447 = EDGE_CURVE('',#448,#440,#450,.T.);
#448 = VERTEX_POINT('',#449);
#449 = CARTESIAN_POINT('',(23.65,76.,5.1));
#450 = LINE('',#451,#452);
#451 = CARTESIAN_POINT('',(14.,76.,5.1));
#452 = VECTOR('',#453,1.);
#453 = DIRECTION('',(1.,0.,0.));
#454 = ORIENTED_EDGE('',*,*,#455,.F.);
#455 = EDGE_CURVE('',#382,#448,#456,.T.);
#456 = LINE('',#457,#458);
#457 = CARTESIAN_POINT('',(23.65,76.,-0.1));
#458 = VECTOR('',#459,1.);
#459 = DIRECTION('',(0.,0.,1.));
#460 = PLANE('',#461);
#461 = AXIS2_PLACEMENT_3D('',#462,#463,#464);
#462 = CARTESIAN_POINT('',(0.,76.,0.));
#463 = DIRECTION('',(0.,1.,0.));
#464 = DIRECTION('',(0.,0.,1.));
#465 = ADVANCED_FACE('',(#466),#555,.T.);
#466 = FACE_BOUND('',#467,.T.);
#467 = EDGE_LOOP('',(#468,#469,#470,#471,#479,#487,#495,#503,#509,#510,
    #518,#526,#534,#542,#548,#549));
#468 = ORIENTED_EDGE('',*,*,#367,.F.);
#469 = ORIENTED_EDGE('',*,*,#63,.T.);
#470 = ORIENTED_EDGE('',*,*,#381,.T.);
#471 = ORIENTED_EDGE('',*,*,#472,.T.);
#472 = EDGE_CURVE('',#382,#473,#475,.T.);
#473 = VERTEX_POINT('',#474);
#474 = CARTESIAN_POINT('',(17.65,67.5265,0.));
#475 = LINE('',#476,#477);
#476 = CARTESIAN_POINT('',(24.766148184221,77.576280273166,0.));
#477 = VECTOR('',#478,1.);
#478 = DIRECTION('',(-0.577885054295,-0.816118167928,0.));
#479 = ORIENTED_EDGE('',*,*,#480,.T.);
#480 = EDGE_CURVE('',#473,#481,#483,.T.);
#481 = VERTEX_POINT('',#482);
#482 = CARTESIAN_POINT('',(17.65,55.825,0.));
#483 = LINE('',#484,#485);
#484 = CARTESIAN_POINT('',(17.65,52.76325,0.));
#485 = VECTOR('',#486,1.);
#486 = DIRECTION('',(-1.110223024625E-16,-1.,0.));
#487 = ORIENTED_EDGE('',*,*,#488,.T.);
#488 = EDGE_CURVE('',#481,#489,#491,.T.);
#489 = VERTEX_POINT('',#490);
#490 = CARTESIAN_POINT('',(38.35,55.825,0.));
#491 = LINE('',#492,#493);
#492 = CARTESIAN_POINT('',(50.825,55.825,0.));
#493 = VECTOR('',#494,1.);
#494 = DIRECTION('',(1.,-1.110223024625E-16,0.));
#495 = ORIENTED_EDGE('',*,*,#496,.T.);
#496 = EDGE_CURVE('',#489,#497,#499,.T.);
#497 = VERTEX_POINT('',#498);
#498 = CARTESIAN_POINT('',(38.35,67.5265,0.));
#499 = LINE('',#500,#501);
#500 = CARTESIAN_POINT('',(38.35,46.9125,0.));
#501 = VECTOR('',#502,1.);
#502 = DIRECTION('',(1.110223024625E-16,1.,0.));
#503 = ORIENTED_EDGE('',*,*,#504,.T.);
#504 = EDGE_CURVE('',#497,#432,#505,.T.);
#505 = LINE('',#506,#507);
#506 = CARTESIAN_POINT('',(52.935115430523,46.928670733244,
    1.387778780781E-17));
#507 = VECTOR('',#508,1.);
#508 = DIRECTION('',(-0.577885054295,0.816118167928,0.));
#509 = ORIENTED_EDGE('',*,*,#431,.T.);
#510 = ORIENTED_EDGE('',*,*,#511,.T.);
#511 = EDGE_CURVE('',#424,#512,#514,.T.);
#512 = VERTEX_POINT('',#513);
#513 = CARTESIAN_POINT('',(129.65,67.5265,0.));
#514 = LINE('',#515,#516);
#515 = CARTESIAN_POINT('',(118.06488456947,51.165420733244,0.));
#516 = VECTOR('',#517,1.);
#517 = DIRECTION('',(-0.577885054295,-0.816118167928,0.));
#518 = ORIENTED_EDGE('',*,*,#519,.T.);
#519 = EDGE_CURVE('',#512,#520,#522,.T.);
#520 = VERTEX_POINT('',#521);
#521 = CARTESIAN_POINT('',(129.65,55.825,0.));
#522 = LINE('',#523,#524);
#523 = CARTESIAN_POINT('',(129.65,52.76325,0.));
#524 = VECTOR('',#525,1.);
#525 = DIRECTION('',(-1.110223024625E-16,-1.,0.));
#526 = ORIENTED_EDGE('',*,*,#527,.T.);
#527 = EDGE_CURVE('',#520,#528,#530,.T.);
#528 = VERTEX_POINT('',#529);
#529 = CARTESIAN_POINT('',(150.35,55.825,0.));
#530 = LINE('',#531,#532);
#531 = CARTESIAN_POINT('',(106.825,55.825,0.));
#532 = VECTOR('',#533,1.);
#533 = DIRECTION('',(1.,-1.110223024625E-16,0.));
#534 = ORIENTED_EDGE('',*,*,#535,.T.);
#535 = EDGE_CURVE('',#528,#536,#538,.T.);
#536 = VERTEX_POINT('',#537);
#537 = CARTESIAN_POINT('',(150.35,67.5265,0.));
#538 = LINE('',#539,#540);
#539 = CARTESIAN_POINT('',(150.35,46.9125,0.));
#540 = VECTOR('',#541,1.);
#541 = DIRECTION('',(1.110223024625E-16,1.,0.));
#542 = ORIENTED_EDGE('',*,*,#543,.T.);
#543 = EDGE_CURVE('',#536,#400,#544,.T.);
#544 = LINE('',#545,#546);
#545 = CARTESIAN_POINT('',(146.23385181577,73.339530273166,
    1.387778780781E-17));
#546 = VECTOR('',#547,1.);
#547 = DIRECTION('',(-0.577885054295,0.816118167928,0.));
#548 = ORIENTED_EDGE('',*,*,#399,.T.);
#549 = ORIENTED_EDGE('',*,*,#550,.F.);
#550 = EDGE_CURVE('',#315,#392,#551,.T.);
#551 = LINE('',#552,#553);
#552 = CARTESIAN_POINT('',(168.,0.,0.));
#553 = VECTOR('',#554,1.);
#554 = DIRECTION('',(0.,1.,0.));
#555 = PLANE('',#556);
#556 = AXIS2_PLACEMENT_3D('',#557,#558,#559);
#557 = CARTESIAN_POINT('',(84.,38.,0.));
#558 = DIRECTION('',(-0.,-0.,-1.));
#559 = DIRECTION('',(-1.,0.,0.));
#560 = ADVANCED_FACE('',(#561),#586,.T.);
#561 = FACE_BOUND('',#562,.T.);
#562 = EDGE_LOOP('',(#563,#573,#579,#580));
#563 = ORIENTED_EDGE('',*,*,#564,.T.);
#564 = EDGE_CURVE('',#565,#567,#569,.T.);
#565 = VERTEX_POINT('',#566);
#566 = CARTESIAN_POINT('',(156.,1.5,68.));
#567 = VERTEX_POINT('',#568);
#568 = CARTESIAN_POINT('',(156.,55.2,68.));
#569 = LINE('',#570,#571);
#570 = CARTESIAN_POINT('',(156.,0.,68.));
#571 = VECTOR('',#572,1.);
#572 = DIRECTION('',(0.,1.,0.));
#573 = ORIENTED_EDGE('',*,*,#574,.T.);
#574 = EDGE_CURVE('',#567,#104,#575,.T.);
#575 = LINE('',#576,#577);
#576 = CARTESIAN_POINT('',(156.,55.2,68.));
#577 = VECTOR('',#578,1.);
#578 = DIRECTION('',(-1.,0.,0.));
#579 = ORIENTED_EDGE('',*,*,#101,.F.);
#580 = ORIENTED_EDGE('',*,*,#581,.F.);
#581 = EDGE_CURVE('',#565,#102,#582,.T.);
#582 = LINE('',#583,#584);
#583 = CARTESIAN_POINT('',(156.,1.5,68.));
#584 = VECTOR('',#585,1.);
#585 = DIRECTION('',(-1.,0.,0.));
#586 = PLANE('',#587);
#587 = AXIS2_PLACEMENT_3D('',#588,#589,#590);
#588 = CARTESIAN_POINT('',(156.,0.,68.));
#589 = DIRECTION('',(0.,0.,1.));
#590 = DIRECTION('',(-1.,0.,0.));
#591 = ADVANCED_FACE('',(#592),#612,.T.);
#592 = FACE_BOUND('',#593,.T.);
#593 = EDGE_LOOP('',(#594,#603,#610,#611));
#594 = ORIENTED_EDGE('',*,*,#595,.F.);
#595 = EDGE_CURVE('',#596,#104,#598,.T.);
#596 = VERTEX_POINT('',#597);
#597 = CARTESIAN_POINT('',(12.,56.,67.2));
#598 = CIRCLE('',#599,0.8);
#599 = AXIS2_PLACEMENT_3D('',#600,#601,#602);
#600 = CARTESIAN_POINT('',(12.,55.2,67.2));
#601 = DIRECTION('',(1.,0.,0.));
#602 = DIRECTION('',(0.,1.,0.));
#603 = ORIENTED_EDGE('',*,*,#604,.T.);
#604 = EDGE_CURVE('',#596,#135,#605,.T.);
#605 = CIRCLE('',#606,11.2);
#606 = AXIS2_PLACEMENT_3D('',#607,#608,#609);
#607 = CARTESIAN_POINT('',(12.,56.,56.));
#608 = DIRECTION('',(-0.,-1.,0.));
#609 = DIRECTION('',(-1.184237892933E-15,0.,1.));
#610 = ORIENTED_EDGE('',*,*,#134,.T.);
#611 = ORIENTED_EDGE('',*,*,#111,.F.);
#612 = TOROIDAL_SURFACE('',#613,11.2,0.8);
#613 = AXIS2_PLACEMENT_3D('',#614,#615,#616);
#614 = CARTESIAN_POINT('',(12.,55.2,56.));
#615 = DIRECTION('',(0.,-1.,0.));
#616 = DIRECTION('',(-1.184237892933E-15,0.,1.));
#617 = ADVANCED_FACE('',(#618),#629,.T.);
#618 = FACE_BOUND('',#619,.T.);
#619 = EDGE_LOOP('',(#620,#626,#627,#628));
#620 = ORIENTED_EDGE('',*,*,#621,.F.);
#621 = EDGE_CURVE('',#102,#350,#622,.T.);
#622 = LINE('',#623,#624);
#623 = CARTESIAN_POINT('',(12.,0.75,67.25));
#624 = VECTOR('',#625,1.);
#625 = DIRECTION('',(-0.,-0.707106781187,-0.707106781187));
#626 = ORIENTED_EDGE('',*,*,#119,.T.);
#627 = ORIENTED_EDGE('',*,*,#167,.T.);
#628 = ORIENTED_EDGE('',*,*,#357,.F.);
#629 = CONICAL_SURFACE('',#630,12.,0.785398163397);
#630 = AXIS2_PLACEMENT_3D('',#631,#632,#633);
#631 = CARTESIAN_POINT('',(12.,1.5,56.));
#632 = DIRECTION('',(0.,1.,0.));
#633 = DIRECTION('',(-1.184237892933E-15,0.,1.));
#634 = ADVANCED_FACE('',(#635),#704,.F.);
#635 = FACE_BOUND('',#636,.F.);
#636 = EDGE_LOOP('',(#637,#638,#646,#655,#661,#662,#663,#664,#672,#681,
    #689,#698));
#637 = ORIENTED_EDGE('',*,*,#248,.F.);
#638 = ORIENTED_EDGE('',*,*,#639,.T.);
#639 = EDGE_CURVE('',#249,#640,#642,.T.);
#640 = VERTEX_POINT('',#641);
#641 = CARTESIAN_POINT('',(167.2,56.,56.));
#642 = LINE('',#643,#644);
#643 = CARTESIAN_POINT('',(167.2,56.,8.));
#644 = VECTOR('',#645,1.);
#645 = DIRECTION('',(0.,0.,1.));
#646 = ORIENTED_EDGE('',*,*,#647,.T.);
#647 = EDGE_CURVE('',#640,#648,#650,.T.);
#648 = VERTEX_POINT('',#649);
#649 = CARTESIAN_POINT('',(156.,56.,67.2));
#650 = CIRCLE('',#651,11.2);
#651 = AXIS2_PLACEMENT_3D('',#652,#653,#654);
#652 = CARTESIAN_POINT('',(156.,56.,56.));
#653 = DIRECTION('',(0.,-1.,0.));
#654 = DIRECTION('',(1.,0.,-1.184237892934E-15));
#655 = ORIENTED_EDGE('',*,*,#656,.T.);
#656 = EDGE_CURVE('',#648,#596,#657,.T.);
#657 = LINE('',#658,#659);
#658 = CARTESIAN_POINT('',(156.,56.,67.2));
#659 = VECTOR('',#660,1.);
#660 = DIRECTION('',(-1.,0.,0.));
#661 = ORIENTED_EDGE('',*,*,#604,.T.);
#662 = ORIENTED_EDGE('',*,*,#153,.T.);
#663 = ORIENTED_EDGE('',*,*,#198,.F.);
#664 = ORIENTED_EDGE('',*,*,#665,.F.);
#665 = EDGE_CURVE('',#666,#199,#668,.T.);
#666 = VERTEX_POINT('',#667);
#667 = CARTESIAN_POINT('',(3.2,56.,56.));
#668 = LINE('',#669,#670);
#669 = CARTESIAN_POINT('',(3.2,56.,56.));
#670 = VECTOR('',#671,1.);
#671 = DIRECTION('',(0.,0.,-1.));
#672 = ORIENTED_EDGE('',*,*,#673,.F.);
#673 = EDGE_CURVE('',#674,#666,#676,.T.);
#674 = VERTEX_POINT('',#675);
#675 = CARTESIAN_POINT('',(12.,56.,64.8));
#676 = CIRCLE('',#677,8.8);
#677 = AXIS2_PLACEMENT_3D('',#678,#679,#680);
#678 = CARTESIAN_POINT('',(12.,56.,56.));
#679 = DIRECTION('',(0.,-1.,0.));
#680 = DIRECTION('',(0.,0.,1.));
#681 = ORIENTED_EDGE('',*,*,#682,.F.);
#682 = EDGE_CURVE('',#683,#674,#685,.T.);
#683 = VERTEX_POINT('',#684);
#684 = CARTESIAN_POINT('',(156.,56.,64.8));
#685 = LINE('',#686,#687);
#686 = CARTESIAN_POINT('',(156.,56.,64.8));
#687 = VECTOR('',#688,1.);
#688 = DIRECTION('',(-1.,0.,0.));
#689 = ORIENTED_EDGE('',*,*,#690,.F.);
#690 = EDGE_CURVE('',#691,#683,#693,.T.);
#691 = VERTEX_POINT('',#692);
#692 = CARTESIAN_POINT('',(164.8,56.,56.));
#693 = CIRCLE('',#694,8.8);
#694 = AXIS2_PLACEMENT_3D('',#695,#696,#697);
#695 = CARTESIAN_POINT('',(156.,56.,56.));
#696 = DIRECTION('',(0.,-1.,0.));
#697 = DIRECTION('',(1.,0.,1.7763568394E-15));
#698 = ORIENTED_EDGE('',*,*,#699,.F.);
#699 = EDGE_CURVE('',#240,#691,#700,.T.);
#700 = LINE('',#701,#702);
#701 = CARTESIAN_POINT('',(164.8,56.,8.));
#702 = VECTOR('',#703,1.);
#703 = DIRECTION('',(0.,0.,1.));
#704 = PLANE('',#705);
#705 = AXIS2_PLACEMENT_3D('',#706,#707,#708);
#706 = CARTESIAN_POINT('',(84.,56.,33.15477989952));
#707 = DIRECTION('',(-0.,-1.,-0.));
#708 = DIRECTION('',(0.,0.,-1.));
#709 = ADVANCED_FACE('',(#710),#729,.T.);
#710 = FACE_BOUND('',#711,.T.);
#711 = EDGE_LOOP('',(#712,#721,#727,#728));
#712 = ORIENTED_EDGE('',*,*,#713,.T.);
#713 = EDGE_CURVE('',#666,#714,#716,.T.);
#714 = VERTEX_POINT('',#715);
#715 = CARTESIAN_POINT('',(4.,55.2,56.));
#716 = CIRCLE('',#717,0.8);
#717 = AXIS2_PLACEMENT_3D('',#718,#719,#720);
#718 = CARTESIAN_POINT('',(3.2,55.2,56.));
#719 = DIRECTION('',(3.828568698927E-16,0.,-1.));
#720 = DIRECTION('',(-1.,-0.,-3.828568698927E-16));
#721 = ORIENTED_EDGE('',*,*,#722,.T.);
#722 = EDGE_CURVE('',#714,#207,#723,.T.);
#723 = LINE('',#724,#725);
#724 = CARTESIAN_POINT('',(4.,55.2,56.));
#725 = VECTOR('',#726,1.);
#726 = DIRECTION('',(0.,0.,-1.));
#727 = ORIENTED_EDGE('',*,*,#206,.F.);
#728 = ORIENTED_EDGE('',*,*,#665,.F.);
#729 = CYLINDRICAL_SURFACE('',#730,0.8);
#730 = AXIS2_PLACEMENT_3D('',#731,#732,#733);
#731 = CARTESIAN_POINT('',(3.2,55.2,56.));
#732 = DIRECTION('',(0.,0.,-1.));
#733 = DIRECTION('',(0.,1.,0.));
#734 = ADVANCED_FACE('',(#735),#753,.F.);
#735 = FACE_BOUND('',#736,.F.);
#736 = EDGE_LOOP('',(#737,#738,#746,#752));
#737 = ORIENTED_EDGE('',*,*,#215,.F.);
#738 = ORIENTED_EDGE('',*,*,#739,.F.);
#739 = EDGE_CURVE('',#740,#216,#742,.T.);
#740 = VERTEX_POINT('',#741);
#741 = CARTESIAN_POINT('',(4.,5.,56.));
#742 = LINE('',#743,#744);
#743 = CARTESIAN_POINT('',(4.,5.,56.));
#744 = VECTOR('',#745,1.);
#745 = DIRECTION('',(0.,0.,-1.));
#746 = ORIENTED_EDGE('',*,*,#747,.T.);
#747 = EDGE_CURVE('',#740,#714,#748,.T.);
#748 = LINE('',#749,#750);
#749 = CARTESIAN_POINT('',(4.,5.,56.));
#750 = VECTOR('',#751,1.);
#751 = DIRECTION('',(0.,1.,0.));
#752 = ORIENTED_EDGE('',*,*,#722,.T.);
#753 = PLANE('',#754);
#754 = AXIS2_PLACEMENT_3D('',#755,#756,#757);
#755 = CARTESIAN_POINT('',(4.,5.,56.));
#756 = DIRECTION('',(-1.,0.,0.));
#757 = DIRECTION('',(0.,0.,-1.));
#758 = ADVANCED_FACE('',(#759),#795,.F.);
#759 = FACE_BOUND('',#760,.F.);
#760 = EDGE_LOOP('',(#761,#762,#770,#779,#787,#794));
#761 = ORIENTED_EDGE('',*,*,#223,.T.);
#762 = ORIENTED_EDGE('',*,*,#763,.T.);
#763 = EDGE_CURVE('',#224,#764,#766,.T.);
#764 = VERTEX_POINT('',#765);
#765 = CARTESIAN_POINT('',(164.,5.,56.));
#766 = LINE('',#767,#768);
#767 = CARTESIAN_POINT('',(164.,5.,8.));
#768 = VECTOR('',#769,1.);
#769 = DIRECTION('',(0.,0.,1.));
#770 = ORIENTED_EDGE('',*,*,#771,.T.);
#771 = EDGE_CURVE('',#764,#772,#774,.T.);
#772 = VERTEX_POINT('',#773);
#773 = CARTESIAN_POINT('',(156.,5.,64.));
#774 = CIRCLE('',#775,8.);
#775 = AXIS2_PLACEMENT_3D('',#776,#777,#778);
#776 = CARTESIAN_POINT('',(156.,5.,56.));
#777 = DIRECTION('',(0.,-1.,0.));
#778 = DIRECTION('',(1.,0.,1.7763568394E-15));
#779 = ORIENTED_EDGE('',*,*,#780,.T.);
#780 = EDGE_CURVE('',#772,#781,#783,.T.);
#781 = VERTEX_POINT('',#782);
#782 = CARTESIAN_POINT('',(12.,5.,64.));
#783 = LINE('',#784,#785);
#784 = CARTESIAN_POINT('',(156.,5.,64.));
#785 = VECTOR('',#786,1.);
#786 = DIRECTION('',(-1.,0.,0.));
#787 = ORIENTED_EDGE('',*,*,#788,.T.);
#788 = EDGE_CURVE('',#781,#740,#789,.T.);
#789 = CIRCLE('',#790,8.);
#790 = AXIS2_PLACEMENT_3D('',#791,#792,#793);
#791 = CARTESIAN_POINT('',(12.,5.,56.));
#792 = DIRECTION('',(0.,-1.,0.));
#793 = DIRECTION('',(4.440892098501E-16,0.,1.));
#794 = ORIENTED_EDGE('',*,*,#739,.T.);
#795 = PLANE('',#796);
#796 = AXIS2_PLACEMENT_3D('',#797,#798,#799);
#797 = CARTESIAN_POINT('',(84.,5.,35.502340577659));
#798 = DIRECTION('',(-0.,-1.,-0.));
#799 = DIRECTION('',(0.,0.,-1.));
#800 = ADVANCED_FACE('',(#801),#819,.F.);
#801 = FACE_BOUND('',#802,.F.);
#802 = EDGE_LOOP('',(#803,#811,#812,#813));
#803 = ORIENTED_EDGE('',*,*,#804,.F.);
#804 = EDGE_CURVE('',#764,#805,#807,.T.);
#805 = VERTEX_POINT('',#806);
#806 = CARTESIAN_POINT('',(164.,55.2,56.));
#807 = LINE('',#808,#809);
#808 = CARTESIAN_POINT('',(164.,5.,56.));
#809 = VECTOR('',#810,1.);
#810 = DIRECTION('',(0.,1.,0.));
#811 = ORIENTED_EDGE('',*,*,#763,.F.);
#812 = ORIENTED_EDGE('',*,*,#231,.T.);
#813 = ORIENTED_EDGE('',*,*,#814,.T.);
#814 = EDGE_CURVE('',#232,#805,#815,.T.);
#815 = LINE('',#816,#817);
#816 = CARTESIAN_POINT('',(164.,55.2,8.));
#817 = VECTOR('',#818,1.);
#818 = DIRECTION('',(0.,0.,1.));
#819 = PLANE('',#820);
#820 = AXIS2_PLACEMENT_3D('',#821,#822,#823);
#821 = CARTESIAN_POINT('',(164.,5.,8.));
#822 = DIRECTION('',(1.,0.,0.));
#823 = DIRECTION('',(0.,0.,1.));
#824 = ADVANCED_FACE('',(#825),#837,.T.);
#825 = FACE_BOUND('',#826,.T.);
#826 = EDGE_LOOP('',(#827,#828,#829,#836));
#827 = ORIENTED_EDGE('',*,*,#239,.T.);
#828 = ORIENTED_EDGE('',*,*,#814,.T.);
#829 = ORIENTED_EDGE('',*,*,#830,.F.);
#830 = EDGE_CURVE('',#691,#805,#831,.T.);
#831 = CIRCLE('',#832,0.8);
#832 = AXIS2_PLACEMENT_3D('',#833,#834,#835);
#833 = CARTESIAN_POINT('',(164.8,55.2,56.));
#834 = DIRECTION('',(0.,-0.,1.));
#835 = DIRECTION('',(0.,1.,0.));
#836 = ORIENTED_EDGE('',*,*,#699,.F.);
#837 = CYLINDRICAL_SURFACE('',#838,0.8);
#838 = AXIS2_PLACEMENT_3D('',#839,#840,#841);
#839 = CARTESIAN_POINT('',(164.8,55.2,8.));
#840 = DIRECTION('',(0.,0.,1.));
#841 = DIRECTION('',(0.,1.,0.));
#842 = ADVANCED_FACE('',(#843),#880,.T.);
#843 = FACE_BOUND('',#844,.T.);
#844 = EDGE_LOOP('',(#845,#855,#863,#869,#870,#871,#872,#873,#874));
#845 = ORIENTED_EDGE('',*,*,#846,.F.);
#846 = EDGE_CURVE('',#847,#849,#851,.T.);
#847 = VERTEX_POINT('',#848);
#848 = CARTESIAN_POINT('',(168.,1.5,56.));
#849 = VERTEX_POINT('',#850);
#850 = CARTESIAN_POINT('',(168.,55.2,56.));
#851 = LINE('',#852,#853);
#852 = CARTESIAN_POINT('',(168.,0.,56.));
#853 = VECTOR('',#854,1.);
#854 = DIRECTION('',(0.,1.,0.));
#855 = ORIENTED_EDGE('',*,*,#856,.F.);
#856 = EDGE_CURVE('',#857,#847,#859,.T.);
#857 = VERTEX_POINT('',#858);
#858 = CARTESIAN_POINT('',(168.,1.5,8.));
#859 = LINE('',#860,#861);
#860 = CARTESIAN_POINT('',(168.,1.5,0.));
#861 = VECTOR('',#862,1.);
#862 = DIRECTION('',(0.,0.,1.));
#863 = ORIENTED_EDGE('',*,*,#864,.F.);
#864 = EDGE_CURVE('',#317,#857,#865,.T.);
#865 = LINE('',#866,#867);
#866 = CARTESIAN_POINT('',(168.,0.,8.));
#867 = VECTOR('',#868,1.);
#868 = DIRECTION('',(0.,1.,0.));
#869 = ORIENTED_EDGE('',*,*,#314,.F.);
#870 = ORIENTED_EDGE('',*,*,#550,.T.);
#871 = ORIENTED_EDGE('',*,*,#391,.T.);
#872 = ORIENTED_EDGE('',*,*,#273,.F.);
#873 = ORIENTED_EDGE('',*,*,#265,.T.);
#874 = ORIENTED_EDGE('',*,*,#875,.T.);
#875 = EDGE_CURVE('',#257,#849,#876,.T.);
#876 = LINE('',#877,#878);
#877 = CARTESIAN_POINT('',(168.,55.2,8.));
#878 = VECTOR('',#879,1.);
#879 = DIRECTION('',(0.,0.,1.));
#880 = PLANE('',#881);
#881 = AXIS2_PLACEMENT_3D('',#882,#883,#884);
#882 = CARTESIAN_POINT('',(168.,34.636363636364,24.090909090909));
#883 = DIRECTION('',(1.,0.,0.));
#884 = DIRECTION('',(0.,0.,1.));
#885 = ADVANCED_FACE('',(#886),#898,.T.);
#886 = FACE_BOUND('',#887,.F.);
#887 = EDGE_LOOP('',(#888,#889,#890,#897));
#888 = ORIENTED_EDGE('',*,*,#256,.T.);
#889 = ORIENTED_EDGE('',*,*,#875,.T.);
#890 = ORIENTED_EDGE('',*,*,#891,.F.);
#891 = EDGE_CURVE('',#640,#849,#892,.T.);
#892 = CIRCLE('',#893,0.8);
#893 = AXIS2_PLACEMENT_3D('',#894,#895,#896);
#894 = CARTESIAN_POINT('',(167.2,55.2,56.));
#895 = DIRECTION('',(0.,0.,-1.));
#896 = DIRECTION('',(0.,1.,0.));
#897 = ORIENTED_EDGE('',*,*,#639,.F.);
#898 = CYLINDRICAL_SURFACE('',#899,0.8);
#899 = AXIS2_PLACEMENT_3D('',#900,#901,#902);
#900 = CARTESIAN_POINT('',(167.2,55.2,8.));
#901 = DIRECTION('',(0.,0.,1.));
#902 = DIRECTION('',(0.,1.,0.));
#903 = ADVANCED_FACE('',(#904),#914,.T.);
#904 = FACE_BOUND('',#905,.T.);
#905 = EDGE_LOOP('',(#906,#912,#913));
#906 = ORIENTED_EDGE('',*,*,#907,.T.);
#907 = EDGE_CURVE('',#857,#325,#908,.T.);
#908 = LINE('',#909,#910);
#909 = CARTESIAN_POINT('',(125.25,-41.25,8.));
#910 = VECTOR('',#911,1.);
#911 = DIRECTION('',(-0.707106781187,-0.707106781187,0.));
#912 = ORIENTED_EDGE('',*,*,#324,.T.);
#913 = ORIENTED_EDGE('',*,*,#864,.T.);
#914 = PLANE('',#915);
#915 = AXIS2_PLACEMENT_3D('',#916,#917,#918);
#916 = CARTESIAN_POINT('',(0.,0.,8.));
#917 = DIRECTION('',(0.,0.,1.));
#918 = DIRECTION('',(1.,0.,0.));
#919 = ADVANCED_FACE('',(#920),#931,.T.);
#920 = FACE_BOUND('',#921,.T.);
#921 = EDGE_LOOP('',(#922,#923,#924,#930));
#922 = ORIENTED_EDGE('',*,*,#907,.F.);
#923 = ORIENTED_EDGE('',*,*,#856,.T.);
#924 = ORIENTED_EDGE('',*,*,#925,.T.);
#925 = EDGE_CURVE('',#847,#333,#926,.T.);
#926 = LINE('',#927,#928);
#927 = CARTESIAN_POINT('',(167.25,0.75,56.));
#928 = VECTOR('',#929,1.);
#929 = DIRECTION('',(-0.707106781187,-0.707106781187,0.));
#930 = ORIENTED_EDGE('',*,*,#332,.F.);
#931 = PLANE('',#932);
#932 = AXIS2_PLACEMENT_3D('',#933,#934,#935);
#933 = CARTESIAN_POINT('',(167.25,0.75,0.));
#934 = DIRECTION('',(0.707106781187,-0.707106781187,0.));
#935 = DIRECTION('',(0.,0.,1.));
#936 = ADVANCED_FACE('',(#937),#954,.T.);
#937 = FACE_BOUND('',#938,.T.);
#938 = EDGE_LOOP('',(#939,#940,#947,#953));
#939 = ORIENTED_EDGE('',*,*,#925,.F.);
#940 = ORIENTED_EDGE('',*,*,#941,.T.);
#941 = EDGE_CURVE('',#847,#565,#942,.T.);
#942 = CIRCLE('',#943,12.);
#943 = AXIS2_PLACEMENT_3D('',#944,#945,#946);
#944 = CARTESIAN_POINT('',(156.,1.5,56.));
#945 = DIRECTION('',(0.,-1.,0.));
#946 = DIRECTION('',(1.,0.,-1.184237892934E-15));
#947 = ORIENTED_EDGE('',*,*,#948,.T.);
#948 = EDGE_CURVE('',#565,#341,#949,.T.);
#949 = LINE('',#950,#951);
#950 = CARTESIAN_POINT('',(156.,1.5,68.));
#951 = VECTOR('',#952,1.);
#952 = DIRECTION('',(6.137502776714E-17,-0.707106781187,-0.707106781187)
  );
#953 = ORIENTED_EDGE('',*,*,#340,.F.);
#954 = CONICAL_SURFACE('',#955,12.,0.785398163397);
#955 = AXIS2_PLACEMENT_3D('',#956,#957,#958);
#956 = CARTESIAN_POINT('',(156.,1.5,56.));
#957 = DIRECTION('',(0.,1.,0.));
#958 = DIRECTION('',(1.,0.,-1.184237892934E-15));
#959 = ADVANCED_FACE('',(#960),#966,.T.);
#960 = FACE_BOUND('',#961,.T.);
#961 = EDGE_LOOP('',(#962,#963,#964,#965));
#962 = ORIENTED_EDGE('',*,*,#948,.F.);
#963 = ORIENTED_EDGE('',*,*,#581,.T.);
#964 = ORIENTED_EDGE('',*,*,#621,.T.);
#965 = ORIENTED_EDGE('',*,*,#349,.F.);
#966 = PLANE('',#967);
#967 = AXIS2_PLACEMENT_3D('',#968,#969,#970);
#968 = CARTESIAN_POINT('',(156.,0.75,67.25));
#969 = DIRECTION('',(0.,-0.707106781187,0.707106781187));
#970 = DIRECTION('',(-1.,0.,0.));
#971 = ADVANCED_FACE('',(#972),#990,.T.);
#972 = FACE_BOUND('',#973,.T.);
#973 = EDGE_LOOP('',(#974,#975,#976,#984));
#974 = ORIENTED_EDGE('',*,*,#472,.F.);
#975 = ORIENTED_EDGE('',*,*,#455,.T.);
#976 = ORIENTED_EDGE('',*,*,#977,.T.);
#977 = EDGE_CURVE('',#448,#978,#980,.T.);
#978 = VERTEX_POINT('',#979);
#979 = CARTESIAN_POINT('',(17.65,67.5265,5.1));
#980 = LINE('',#981,#982);
#981 = CARTESIAN_POINT('',(23.65,76.,5.1));
#982 = VECTOR('',#983,1.);
#983 = DIRECTION('',(-0.577885054295,-0.816118167928,0.));
#984 = ORIENTED_EDGE('',*,*,#985,.F.);
#985 = EDGE_CURVE('',#473,#978,#986,.T.);
#986 = LINE('',#987,#988);
#987 = CARTESIAN_POINT('',(17.65,67.5265,-0.1));
#988 = VECTOR('',#989,1.);
#989 = DIRECTION('',(0.,0.,1.));
#990 = PLANE('',#991);
#991 = AXIS2_PLACEMENT_3D('',#992,#993,#994);
#992 = CARTESIAN_POINT('',(23.65,76.,-0.1));
#993 = DIRECTION('',(0.816118167928,-0.577885054295,0.));
#994 = DIRECTION('',(-0.577885054295,-0.816118167928,0.));
#995 = ADVANCED_FACE('',(#996),#1030,.F.);
#996 = FACE_BOUND('',#997,.F.);
#997 = EDGE_LOOP('',(#998,#1008,#1016,#1022,#1023,#1024));
#998 = ORIENTED_EDGE('',*,*,#999,.T.);
#999 = EDGE_CURVE('',#1000,#1002,#1004,.T.);
#1000 = VERTEX_POINT('',#1001);
#1001 = CARTESIAN_POINT('',(17.65,55.825,5.1));
#1002 = VERTEX_POINT('',#1003);
#1003 = CARTESIAN_POINT('',(38.35,55.825,5.1));
#1004 = LINE('',#1005,#1006);
#1005 = CARTESIAN_POINT('',(17.65,55.825,5.1));
#1006 = VECTOR('',#1007,1.);
#1007 = DIRECTION('',(1.,-1.110223024625E-16,0.));
#1008 = ORIENTED_EDGE('',*,*,#1009,.T.);
#1009 = EDGE_CURVE('',#1002,#1010,#1012,.T.);
#1010 = VERTEX_POINT('',#1011);
#1011 = CARTESIAN_POINT('',(38.35,67.5265,5.1));
#1012 = LINE('',#1013,#1014);
#1013 = CARTESIAN_POINT('',(38.35,55.825,5.1));
#1014 = VECTOR('',#1015,1.);
#1015 = DIRECTION('',(1.110223024625E-16,1.,0.));
#1016 = ORIENTED_EDGE('',*,*,#1017,.T.);
#1017 = EDGE_CURVE('',#1010,#440,#1018,.T.);
#1018 = LINE('',#1019,#1020);
#1019 = CARTESIAN_POINT('',(38.35,67.5265,5.1));
#1020 = VECTOR('',#1021,1.);
#1021 = DIRECTION('',(-0.577885054295,0.816118167928,0.));
#1022 = ORIENTED_EDGE('',*,*,#447,.F.);
#1023 = ORIENTED_EDGE('',*,*,#977,.T.);
#1024 = ORIENTED_EDGE('',*,*,#1025,.T.);
#1025 = EDGE_CURVE('',#978,#1000,#1026,.T.);
#1026 = LINE('',#1027,#1028);
#1027 = CARTESIAN_POINT('',(17.65,67.5265,5.1));
#1028 = VECTOR('',#1029,1.);
#1029 = DIRECTION('',(-1.110223024625E-16,-1.,0.));
#1030 = PLANE('',#1031);
#1031 = AXIS2_PLACEMENT_3D('',#1032,#1033,#1034);
#1032 = CARTESIAN_POINT('',(28.,76.,5.1));
#1033 = DIRECTION('',(0.,0.,1.));
#1034 = DIRECTION('',(1.110223024625E-16,1.,0.));
#1035 = ADVANCED_FACE('',(#1036),#1047,.T.);
#1036 = FACE_BOUND('',#1037,.T.);
#1037 = EDGE_LOOP('',(#1038,#1039,#1045,#1046));
#1038 = ORIENTED_EDGE('',*,*,#504,.F.);
#1039 = ORIENTED_EDGE('',*,*,#1040,.T.);
#1040 = EDGE_CURVE('',#497,#1010,#1041,.T.);
#1041 = LINE('',#1042,#1043);
#1042 = CARTESIAN_POINT('',(38.35,67.5265,-0.1));
#1043 = VECTOR('',#1044,1.);
#1044 = DIRECTION('',(0.,0.,1.));
#1045 = ORIENTED_EDGE('',*,*,#1017,.T.);
#1046 = ORIENTED_EDGE('',*,*,#439,.F.);
#1047 = PLANE('',#1048);
#1048 = AXIS2_PLACEMENT_3D('',#1049,#1050,#1051);
#1049 = CARTESIAN_POINT('',(38.35,67.5265,-0.1));
#1050 = DIRECTION('',(-0.816118167928,-0.577885054295,0.));
#1051 = DIRECTION('',(-0.577885054295,0.816118167928,0.));
#1052 = ADVANCED_FACE('',(#1053),#1071,.T.);
#1053 = FACE_BOUND('',#1054,.T.);
#1054 = EDGE_LOOP('',(#1055,#1056,#1057,#1065));
#1055 = ORIENTED_EDGE('',*,*,#511,.F.);
#1056 = ORIENTED_EDGE('',*,*,#423,.T.);
#1057 = ORIENTED_EDGE('',*,*,#1058,.T.);
#1058 = EDGE_CURVE('',#416,#1059,#1061,.T.);
#1059 = VERTEX_POINT('',#1060);
#1060 = CARTESIAN_POINT('',(129.65,67.5265,5.1));
#1061 = LINE('',#1062,#1063);
#1062 = CARTESIAN_POINT('',(135.65,76.,5.1));
#1063 = VECTOR('',#1064,1.);
#1064 = DIRECTION('',(-0.577885054295,-0.816118167928,0.));
#1065 = ORIENTED_EDGE('',*,*,#1066,.F.);
#1066 = EDGE_CURVE('',#512,#1059,#1067,.T.);
#1067 = LINE('',#1068,#1069);
#1068 = CARTESIAN_POINT('',(129.65,67.5265,-0.1));
#1069 = VECTOR('',#1070,1.);
#1070 = DIRECTION('',(0.,0.,1.));
#1071 = PLANE('',#1072);
#1072 = AXIS2_PLACEMENT_3D('',#1073,#1074,#1075);
#1073 = CARTESIAN_POINT('',(135.65,76.,-0.1));
#1074 = DIRECTION('',(0.816118167928,-0.577885054295,0.));
#1075 = DIRECTION('',(-0.577885054295,-0.816118167928,0.));
#1076 = ADVANCED_FACE('',(#1077),#1111,.F.);
#1077 = FACE_BOUND('',#1078,.F.);
#1078 = EDGE_LOOP('',(#1079,#1089,#1097,#1103,#1104,#1105));
#1079 = ORIENTED_EDGE('',*,*,#1080,.T.);
#1080 = EDGE_CURVE('',#1081,#1083,#1085,.T.);
#1081 = VERTEX_POINT('',#1082);
#1082 = CARTESIAN_POINT('',(129.65,55.825,5.1));
#1083 = VERTEX_POINT('',#1084);
#1084 = CARTESIAN_POINT('',(150.35,55.825,5.1));
#1085 = LINE('',#1086,#1087);
#1086 = CARTESIAN_POINT('',(129.65,55.825,5.1));
#1087 = VECTOR('',#1088,1.);
#1088 = DIRECTION('',(1.,-1.110223024625E-16,0.));
#1089 = ORIENTED_EDGE('',*,*,#1090,.T.);
#1090 = EDGE_CURVE('',#1083,#1091,#1093,.T.);
#1091 = VERTEX_POINT('',#1092);
#1092 = CARTESIAN_POINT('',(150.35,67.5265,5.1));
#1093 = LINE('',#1094,#1095);
#1094 = CARTESIAN_POINT('',(150.35,55.825,5.1));
#1095 = VECTOR('',#1096,1.);
#1096 = DIRECTION('',(1.110223024625E-16,1.,0.));
#1097 = ORIENTED_EDGE('',*,*,#1098,.T.);
#1098 = EDGE_CURVE('',#1091,#408,#1099,.T.);
#1099 = LINE('',#1100,#1101);
#1100 = CARTESIAN_POINT('',(150.35,67.5265,5.1));
#1101 = VECTOR('',#1102,1.);
#1102 = DIRECTION('',(-0.577885054295,0.816118167928,0.));
#1103 = ORIENTED_EDGE('',*,*,#415,.F.);
#1104 = ORIENTED_EDGE('',*,*,#1058,.T.);
#1105 = ORIENTED_EDGE('',*,*,#1106,.T.);
#1106 = EDGE_CURVE('',#1059,#1081,#1107,.T.);
#1107 = LINE('',#1108,#1109);
#1108 = CARTESIAN_POINT('',(129.65,67.5265,5.1));
#1109 = VECTOR('',#1110,1.);
#1110 = DIRECTION('',(-1.110223024625E-16,-1.,0.));
#1111 = PLANE('',#1112);
#1112 = AXIS2_PLACEMENT_3D('',#1113,#1114,#1115);
#1113 = CARTESIAN_POINT('',(140.,76.,5.1));
#1114 = DIRECTION('',(0.,0.,1.));
#1115 = DIRECTION('',(1.110223024625E-16,1.,0.));
#1116 = ADVANCED_FACE('',(#1117),#1128,.T.);
#1117 = FACE_BOUND('',#1118,.T.);
#1118 = EDGE_LOOP('',(#1119,#1120,#1126,#1127));
#1119 = ORIENTED_EDGE('',*,*,#543,.F.);
#1120 = ORIENTED_EDGE('',*,*,#1121,.T.);
#1121 = EDGE_CURVE('',#536,#1091,#1122,.T.);
#1122 = LINE('',#1123,#1124);
#1123 = CARTESIAN_POINT('',(150.35,67.5265,-0.1));
#1124 = VECTOR('',#1125,1.);
#1125 = DIRECTION('',(0.,0.,1.));
#1126 = ORIENTED_EDGE('',*,*,#1098,.T.);
#1127 = ORIENTED_EDGE('',*,*,#407,.F.);
#1128 = PLANE('',#1129);
#1129 = AXIS2_PLACEMENT_3D('',#1130,#1131,#1132);
#1130 = CARTESIAN_POINT('',(150.35,67.5265,-0.1));
#1131 = DIRECTION('',(-0.816118167928,-0.577885054295,0.));
#1132 = DIRECTION('',(-0.577885054295,0.816118167928,0.));
#1133 = ADVANCED_FACE('',(#1134),#1145,.T.);
#1134 = FACE_BOUND('',#1135,.T.);
#1135 = EDGE_LOOP('',(#1136,#1137,#1143,#1144));
#1136 = ORIENTED_EDGE('',*,*,#535,.F.);
#1137 = ORIENTED_EDGE('',*,*,#1138,.T.);
#1138 = EDGE_CURVE('',#528,#1083,#1139,.T.);
#1139 = LINE('',#1140,#1141);
#1140 = CARTESIAN_POINT('',(150.35,55.825,-0.1));
#1141 = VECTOR('',#1142,1.);
#1142 = DIRECTION('',(0.,0.,1.));
#1143 = ORIENTED_EDGE('',*,*,#1090,.T.);
#1144 = ORIENTED_EDGE('',*,*,#1121,.F.);
#1145 = PLANE('',#1146);
#1146 = AXIS2_PLACEMENT_3D('',#1147,#1148,#1149);
#1147 = CARTESIAN_POINT('',(150.35,55.825,-0.1));
#1148 = DIRECTION('',(-1.,1.110223024625E-16,0.));
#1149 = DIRECTION('',(1.110223024625E-16,1.,0.));
#1150 = ADVANCED_FACE('',(#1151),#1162,.T.);
#1151 = FACE_BOUND('',#1152,.T.);
#1152 = EDGE_LOOP('',(#1153,#1154,#1160,#1161));
#1153 = ORIENTED_EDGE('',*,*,#527,.F.);
#1154 = ORIENTED_EDGE('',*,*,#1155,.T.);
#1155 = EDGE_CURVE('',#520,#1081,#1156,.T.);
#1156 = LINE('',#1157,#1158);
#1157 = CARTESIAN_POINT('',(129.65,55.825,-0.1));
#1158 = VECTOR('',#1159,1.);
#1159 = DIRECTION('',(0.,0.,1.));
#1160 = ORIENTED_EDGE('',*,*,#1080,.T.);
#1161 = ORIENTED_EDGE('',*,*,#1138,.F.);
#1162 = PLANE('',#1163);
#1163 = AXIS2_PLACEMENT_3D('',#1164,#1165,#1166);
#1164 = CARTESIAN_POINT('',(129.65,55.825,-0.1));
#1165 = DIRECTION('',(1.110223024625E-16,1.,0.));
#1166 = DIRECTION('',(1.,-1.110223024625E-16,0.));
#1167 = ADVANCED_FACE('',(#1168),#1174,.T.);
#1168 = FACE_BOUND('',#1169,.T.);
#1169 = EDGE_LOOP('',(#1170,#1171,#1172,#1173));
#1170 = ORIENTED_EDGE('',*,*,#519,.F.);
#1171 = ORIENTED_EDGE('',*,*,#1066,.T.);
#1172 = ORIENTED_EDGE('',*,*,#1106,.T.);
#1173 = ORIENTED_EDGE('',*,*,#1155,.F.);
#1174 = PLANE('',#1175);
#1175 = AXIS2_PLACEMENT_3D('',#1176,#1177,#1178);
#1176 = CARTESIAN_POINT('',(129.65,67.5265,-0.1));
#1177 = DIRECTION('',(1.,-1.110223024625E-16,0.));
#1178 = DIRECTION('',(-1.110223024625E-16,-1.,0.));
#1179 = ADVANCED_FACE('',(#1180),#1191,.T.);
#1180 = FACE_BOUND('',#1181,.T.);
#1181 = EDGE_LOOP('',(#1182,#1183,#1189,#1190));
#1182 = ORIENTED_EDGE('',*,*,#496,.F.);
#1183 = ORIENTED_EDGE('',*,*,#1184,.T.);
#1184 = EDGE_CURVE('',#489,#1002,#1185,.T.);
#1185 = LINE('',#1186,#1187);
#1186 = CARTESIAN_POINT('',(38.35,55.825,-0.1));
#1187 = VECTOR('',#1188,1.);
#1188 = DIRECTION('',(0.,0.,1.));
#1189 = ORIENTED_EDGE('',*,*,#1009,.T.);
#1190 = ORIENTED_EDGE('',*,*,#1040,.F.);
#1191 = PLANE('',#1192);
#1192 = AXIS2_PLACEMENT_3D('',#1193,#1194,#1195);
#1193 = CARTESIAN_POINT('',(38.35,55.825,-0.1));
#1194 = DIRECTION('',(-1.,1.110223024625E-16,0.));
#1195 = DIRECTION('',(1.110223024625E-16,1.,0.));
#1196 = ADVANCED_FACE('',(#1197),#1208,.T.);
#1197 = FACE_BOUND('',#1198,.T.);
#1198 = EDGE_LOOP('',(#1199,#1200,#1206,#1207));
#1199 = ORIENTED_EDGE('',*,*,#488,.F.);
#1200 = ORIENTED_EDGE('',*,*,#1201,.T.);
#1201 = EDGE_CURVE('',#481,#1000,#1202,.T.);
#1202 = LINE('',#1203,#1204);
#1203 = CARTESIAN_POINT('',(17.65,55.825,-0.1));
#1204 = VECTOR('',#1205,1.);
#1205 = DIRECTION('',(0.,0.,1.));
#1206 = ORIENTED_EDGE('',*,*,#999,.T.);
#1207 = ORIENTED_EDGE('',*,*,#1184,.F.);
#1208 = PLANE('',#1209);
#1209 = AXIS2_PLACEMENT_3D('',#1210,#1211,#1212);
#1210 = CARTESIAN_POINT('',(17.65,55.825,-0.1));
#1211 = DIRECTION('',(1.110223024625E-16,1.,0.));
#1212 = DIRECTION('',(1.,-1.110223024625E-16,0.));
#1213 = ADVANCED_FACE('',(#1214),#1220,.T.);
#1214 = FACE_BOUND('',#1215,.T.);
#1215 = EDGE_LOOP('',(#1216,#1217,#1218,#1219));
#1216 = ORIENTED_EDGE('',*,*,#480,.F.);
#1217 = ORIENTED_EDGE('',*,*,#985,.T.);
#1218 = ORIENTED_EDGE('',*,*,#1025,.T.);
#1219 = ORIENTED_EDGE('',*,*,#1201,.F.);
#1220 = PLANE('',#1221);
#1221 = AXIS2_PLACEMENT_3D('',#1222,#1223,#1224);
#1222 = CARTESIAN_POINT('',(17.65,67.5265,-0.1));
#1223 = DIRECTION('',(1.,-1.110223024625E-16,0.));
#1224 = DIRECTION('',(-1.110223024625E-16,-1.,0.));
#1225 = ADVANCED_FACE('',(#1226),#1238,.T.);
#1226 = FACE_BOUND('',#1227,.T.);
#1227 = EDGE_LOOP('',(#1228,#1229,#1236,#1237));
#1228 = ORIENTED_EDGE('',*,*,#846,.T.);
#1229 = ORIENTED_EDGE('',*,*,#1230,.T.);
#1230 = EDGE_CURVE('',#849,#567,#1231,.T.);
#1231 = CIRCLE('',#1232,12.);
#1232 = AXIS2_PLACEMENT_3D('',#1233,#1234,#1235);
#1233 = CARTESIAN_POINT('',(156.,55.2,56.));
#1234 = DIRECTION('',(0.,-1.,0.));
#1235 = DIRECTION('',(1.,0.,-1.184237892934E-15));
#1236 = ORIENTED_EDGE('',*,*,#564,.F.);
#1237 = ORIENTED_EDGE('',*,*,#941,.F.);
#1238 = CYLINDRICAL_SURFACE('',#1239,12.);
#1239 = AXIS2_PLACEMENT_3D('',#1240,#1241,#1242);
#1240 = CARTESIAN_POINT('',(156.,0.,56.));
#1241 = DIRECTION('',(0.,-1.,0.));
#1242 = DIRECTION('',(1.,0.,-1.184237892934E-15));
#1243 = ADVANCED_FACE('',(#1244),#1256,.T.);
#1244 = FACE_BOUND('',#1245,.F.);
#1245 = EDGE_LOOP('',(#1246,#1253,#1254,#1255));
#1246 = ORIENTED_EDGE('',*,*,#1247,.T.);
#1247 = EDGE_CURVE('',#648,#567,#1248,.T.);
#1248 = CIRCLE('',#1249,0.8);
#1249 = AXIS2_PLACEMENT_3D('',#1250,#1251,#1252);
#1250 = CARTESIAN_POINT('',(156.,55.2,67.2));
#1251 = DIRECTION('',(1.,0.,8.679739665932E-17));
#1252 = DIRECTION('',(-8.679739665932E-17,0.,1.));
#1253 = ORIENTED_EDGE('',*,*,#574,.T.);
#1254 = ORIENTED_EDGE('',*,*,#595,.F.);
#1255 = ORIENTED_EDGE('',*,*,#656,.F.);
#1256 = CYLINDRICAL_SURFACE('',#1257,0.8);
#1257 = AXIS2_PLACEMENT_3D('',#1258,#1259,#1260);
#1258 = CARTESIAN_POINT('',(156.,55.2,67.2));
#1259 = DIRECTION('',(-1.,0.,0.));
#1260 = DIRECTION('',(0.,1.,0.));
#1261 = ADVANCED_FACE('',(#1262),#1268,.T.);
#1262 = FACE_BOUND('',#1263,.T.);
#1263 = EDGE_LOOP('',(#1264,#1265,#1266,#1267));
#1264 = ORIENTED_EDGE('',*,*,#891,.F.);
#1265 = ORIENTED_EDGE('',*,*,#647,.T.);
#1266 = ORIENTED_EDGE('',*,*,#1247,.T.);
#1267 = ORIENTED_EDGE('',*,*,#1230,.F.);
#1268 = TOROIDAL_SURFACE('',#1269,11.2,0.8);
#1269 = AXIS2_PLACEMENT_3D('',#1270,#1271,#1272);
#1270 = CARTESIAN_POINT('',(156.,55.2,56.));
#1271 = DIRECTION('',(0.,-1.,0.));
#1272 = DIRECTION('',(1.,0.,-1.184237892934E-15));
#1273 = ADVANCED_FACE('',(#1274),#1294,.T.);
#1274 = FACE_BOUND('',#1275,.F.);
#1275 = EDGE_LOOP('',(#1276,#1277,#1278,#1287));
#1276 = ORIENTED_EDGE('',*,*,#830,.F.);
#1277 = ORIENTED_EDGE('',*,*,#690,.T.);
#1278 = ORIENTED_EDGE('',*,*,#1279,.T.);
#1279 = EDGE_CURVE('',#683,#1280,#1282,.T.);
#1280 = VERTEX_POINT('',#1281);
#1281 = CARTESIAN_POINT('',(156.,55.2,64.));
#1282 = CIRCLE('',#1283,0.8);
#1283 = AXIS2_PLACEMENT_3D('',#1284,#1285,#1286);
#1284 = CARTESIAN_POINT('',(156.,55.2,64.8));
#1285 = DIRECTION('',(-1.,0.,6.123233995737E-17));
#1286 = DIRECTION('',(6.123233995737E-17,0.,1.));
#1287 = ORIENTED_EDGE('',*,*,#1288,.F.);
#1288 = EDGE_CURVE('',#805,#1280,#1289,.T.);
#1289 = CIRCLE('',#1290,8.);
#1290 = AXIS2_PLACEMENT_3D('',#1291,#1292,#1293);
#1291 = CARTESIAN_POINT('',(156.,55.2,56.));
#1292 = DIRECTION('',(0.,-1.,0.));
#1293 = DIRECTION('',(1.,0.,1.7763568394E-15));
#1294 = TOROIDAL_SURFACE('',#1295,8.8,0.8);
#1295 = AXIS2_PLACEMENT_3D('',#1296,#1297,#1298);
#1296 = CARTESIAN_POINT('',(156.,55.2,56.));
#1297 = DIRECTION('',(0.,1.,0.));
#1298 = DIRECTION('',(1.,0.,1.7763568394E-15));
#1299 = ADVANCED_FACE('',(#1300),#1319,.T.);
#1300 = FACE_BOUND('',#1301,.T.);
#1301 = EDGE_LOOP('',(#1302,#1303,#1311,#1318));
#1302 = ORIENTED_EDGE('',*,*,#1279,.T.);
#1303 = ORIENTED_EDGE('',*,*,#1304,.T.);
#1304 = EDGE_CURVE('',#1280,#1305,#1307,.T.);
#1305 = VERTEX_POINT('',#1306);
#1306 = CARTESIAN_POINT('',(12.,55.2,64.));
#1307 = LINE('',#1308,#1309);
#1308 = CARTESIAN_POINT('',(156.,55.2,64.));
#1309 = VECTOR('',#1310,1.);
#1310 = DIRECTION('',(-1.,0.,0.));
#1311 = ORIENTED_EDGE('',*,*,#1312,.F.);
#1312 = EDGE_CURVE('',#674,#1305,#1313,.T.);
#1313 = CIRCLE('',#1314,0.8);
#1314 = AXIS2_PLACEMENT_3D('',#1315,#1316,#1317);
#1315 = CARTESIAN_POINT('',(12.,55.2,64.8));
#1316 = DIRECTION('',(-1.,0.,0.));
#1317 = DIRECTION('',(0.,1.,0.));
#1318 = ORIENTED_EDGE('',*,*,#682,.F.);
#1319 = CYLINDRICAL_SURFACE('',#1320,0.8);
#1320 = AXIS2_PLACEMENT_3D('',#1321,#1322,#1323);
#1321 = CARTESIAN_POINT('',(156.,55.2,64.8));
#1322 = DIRECTION('',(-1.,0.,0.));
#1323 = DIRECTION('',(0.,1.,0.));
#1324 = ADVANCED_FACE('',(#1325),#1337,.T.);
#1325 = FACE_BOUND('',#1326,.F.);
#1326 = EDGE_LOOP('',(#1327,#1328,#1329,#1330));
#1327 = ORIENTED_EDGE('',*,*,#1312,.F.);
#1328 = ORIENTED_EDGE('',*,*,#673,.T.);
#1329 = ORIENTED_EDGE('',*,*,#713,.T.);
#1330 = ORIENTED_EDGE('',*,*,#1331,.F.);
#1331 = EDGE_CURVE('',#1305,#714,#1332,.T.);
#1332 = CIRCLE('',#1333,8.);
#1333 = AXIS2_PLACEMENT_3D('',#1334,#1335,#1336);
#1334 = CARTESIAN_POINT('',(12.,55.2,56.));
#1335 = DIRECTION('',(0.,-1.,0.));
#1336 = DIRECTION('',(0.,0.,1.));
#1337 = TOROIDAL_SURFACE('',#1338,8.8,0.8);
#1338 = AXIS2_PLACEMENT_3D('',#1339,#1340,#1341);
#1339 = CARTESIAN_POINT('',(12.,55.2,56.));
#1340 = DIRECTION('',(0.,1.,0.));
#1341 = DIRECTION('',(0.,0.,1.));
#1342 = ADVANCED_FACE('',(#1343),#1354,.F.);
#1343 = FACE_BOUND('',#1344,.F.);
#1344 = EDGE_LOOP('',(#1345,#1346,#1347,#1353));
#1345 = ORIENTED_EDGE('',*,*,#747,.F.);
#1346 = ORIENTED_EDGE('',*,*,#788,.F.);
#1347 = ORIENTED_EDGE('',*,*,#1348,.T.);
#1348 = EDGE_CURVE('',#781,#1305,#1349,.T.);
#1349 = LINE('',#1350,#1351);
#1350 = CARTESIAN_POINT('',(12.,5.,64.));
#1351 = VECTOR('',#1352,1.);
#1352 = DIRECTION('',(0.,1.,0.));
#1353 = ORIENTED_EDGE('',*,*,#1331,.T.);
#1354 = CYLINDRICAL_SURFACE('',#1355,8.);
#1355 = AXIS2_PLACEMENT_3D('',#1356,#1357,#1358);
#1356 = CARTESIAN_POINT('',(12.,5.,56.));
#1357 = DIRECTION('',(0.,-1.,0.));
#1358 = DIRECTION('',(4.440892098501E-16,0.,1.));
#1359 = ADVANCED_FACE('',(#1360),#1371,.F.);
#1360 = FACE_BOUND('',#1361,.F.);
#1361 = EDGE_LOOP('',(#1362,#1368,#1369,#1370));
#1362 = ORIENTED_EDGE('',*,*,#1363,.F.);
#1363 = EDGE_CURVE('',#772,#1280,#1364,.T.);
#1364 = LINE('',#1365,#1366);
#1365 = CARTESIAN_POINT('',(156.,5.,64.));
#1366 = VECTOR('',#1367,1.);
#1367 = DIRECTION('',(0.,1.,0.));
#1368 = ORIENTED_EDGE('',*,*,#771,.F.);
#1369 = ORIENTED_EDGE('',*,*,#804,.T.);
#1370 = ORIENTED_EDGE('',*,*,#1288,.T.);
#1371 = CYLINDRICAL_SURFACE('',#1372,8.);
#1372 = AXIS2_PLACEMENT_3D('',#1373,#1374,#1375);
#1373 = CARTESIAN_POINT('',(156.,5.,56.));
#1374 = DIRECTION('',(0.,-1.,0.));
#1375 = DIRECTION('',(1.,0.,1.7763568394E-15));
#1376 = ADVANCED_FACE('',(#1377),#1383,.F.);
#1377 = FACE_BOUND('',#1378,.F.);
#1378 = EDGE_LOOP('',(#1379,#1380,#1381,#1382));
#1379 = ORIENTED_EDGE('',*,*,#1348,.F.);
#1380 = ORIENTED_EDGE('',*,*,#780,.F.);
#1381 = ORIENTED_EDGE('',*,*,#1363,.T.);
#1382 = ORIENTED_EDGE('',*,*,#1304,.T.);
#1383 = PLANE('',#1384);
#1384 = AXIS2_PLACEMENT_3D('',#1385,#1386,#1387);
#1385 = CARTESIAN_POINT('',(156.,5.,64.));
#1386 = DIRECTION('',(0.,0.,1.));
#1387 = DIRECTION('',(-1.,0.,0.));
#1388 = ( GEOMETRIC_REPRESENTATION_CONTEXT(3) 
GLOBAL_UNCERTAINTY_ASSIGNED_CONTEXT((#1392)) 
GLOBAL_UNIT_ASSIGNED_CONTEXT((#1389,#1390,#1391)) REPRESENTATION_CONTEXT
('Context #1','3D Context with UNIT and UNCERTAINTY') );
#1389 = ( LENGTH_UNIT() NAMED_UNIT(*) SI_UNIT(.MILLI.,.METRE.) );
#1390 = ( NAMED_UNIT(*) PLANE_ANGLE_UNIT() SI_UNIT($,.RADIAN.) );
#1391 = ( NAMED_UNIT(*) SI_UNIT($,.STERADIAN.) SOLID_ANGLE_UNIT() );
#1392 = UNCERTAINTY_MEASURE_WITH_UNIT(LENGTH_MEASURE(1.E-07),#1389,
  'distance_accuracy_value','confusion accuracy');
#1393 = PRODUCT_RELATED_PRODUCT_CATEGORY('part',$,(#7));
ENDSEC;
END-ISO-10303-21;
